<?xml version="1.0" encoding="utf-8"?>
<!-- Generator: Adobe Illustrator 16.0.0, SVG Export Plug-In . SVG Version: 6.00 Build 0)  -->
<!DOCTYPE svg PUBLIC "-//W3C//DTD SVG 1.1//EN" "http://www.w3.org/Graphics/SVG/1.1/DTD/svg11.dtd">
<svg version="1.1" id="Layer_1" xmlns="http://www.w3.org/2000/svg" xmlns:xlink="http://www.w3.org/1999/xlink" x="0px" y="0px"
	 width="203.717px" height="202.792px" viewBox="0 0 203.717 202.792" enable-background="new 0 0 203.717 202.792"
	 xml:space="preserve">
<g>
	<g>
		<polygon points="191.389,101.396 143.473,111.685 136.819,101.396 143.473,91.105 		"/>
		<polygon points="101.386,136.828 111.676,143.482 101.386,191.392 91.096,143.482 		"/>
		<polygon points="101.386,11.399 111.676,59.308 101.386,65.963 91.096,59.308 		"/>
		<polygon points="59.299,91.105 65.954,101.396 59.299,111.685 11.39,101.396 		"/>
	</g>
	<polygon points="165.028,37.762 123.889,101.392 165.028,165.03 101.39,123.89 37.752,165.03 78.891,101.392 37.752,37.762 
		101.39,78.892 	"/>
</g>
<g>
	<path id="path7032-6" d="M38.048,51.537c4.534,0.204,9.039-1.992,11.573-6.102c0.034-0.04,0.069-0.082,0.103-0.122
		c0.016-0.033,0.03-0.067,0.042-0.101c0.038-0.052,0.073-0.105,0.106-0.161c3.454-6.061,1.43-13.827-4.552-17.421
		c-6.079-3.652-14.032-1.674-17.683,4.405c-3.654,6.077-1.676,14.031,4.403,17.683C33.927,50.853,35.987,51.445,38.048,51.537
		L38.048,51.537z M38.322,46.38c-1.23-0.061-2.475-0.42-3.611-1.104c-3.667-2.202-4.835-6.888-2.633-10.553
		c2.203-3.665,6.889-4.855,10.553-2.651c3.605,2.166,4.8,6.757,2.717,10.411c-0.031,0.053-0.059,0.107-0.086,0.162
		c-0.016,0.029-0.026,0.056-0.041,0.081c-1.526,2.479-4.192,3.786-6.896,3.655L38.322,46.38z"/>
	<path id="path15803" d="M64.751,21.934c1.467-1.449,2.891-2.968,4.264-4.514c7.593-9.157,12.131-21.814,1.099-15.905
		c-4.33,2.376-12.571,9.2-20.59,21.073c-2.497,3.7-4.925,6.405-7.124,8.463c0.953,0.448,1.85,1.065,2.629,1.872
		c0.969,1.003,1.635,2.173,2.041,3.402C53.365,31.985,59.355,27.272,64.751,21.934L64.751,21.934z M16.136,68.881
		c3.604-3.487,7.673-8.171,11.683-14.106c2.604-3.859,5.14-6.634,7.415-8.718c-0.768-0.422-1.484-0.953-2.129-1.619
		c-1.076-1.114-1.812-2.442-2.189-3.821c-8.25,5.632-15.979,11.889-22.592,19.327C0.736,69.099-3.803,81.755,7.229,75.846
		C9.392,74.658,12.535,72.368,16.136,68.881z"/>
</g>
<g>
	<path id="path7032-6_1_" d="M164.405,176.966c4.534,0.204,9.039-1.992,11.573-6.102c0.034-0.039,0.069-0.082,0.103-0.121
		c0.016-0.033,0.03-0.067,0.042-0.102c0.038-0.052,0.073-0.105,0.106-0.161c3.454-6.061,1.43-13.827-4.552-17.421
		c-6.079-3.652-14.032-1.674-17.683,4.405c-3.654,6.077-1.676,14.031,4.403,17.683C160.284,176.283,162.343,176.875,164.405,176.966
		L164.405,176.966z M164.678,171.81c-1.23-0.062-2.475-0.421-3.611-1.104c-3.667-2.202-4.835-6.889-2.633-10.554
		c2.203-3.665,6.889-4.854,10.553-2.651c3.605,2.166,4.8,6.757,2.717,10.41c-0.031,0.054-0.059,0.107-0.086,0.162
		c-0.016,0.029-0.026,0.057-0.041,0.082c-1.526,2.479-4.192,3.785-6.896,3.654H164.678z"/>
	<path id="path15803_1_" d="M191.108,147.364c1.467-1.448,2.891-2.968,4.264-4.515c7.593-9.156,12.131-21.813,1.099-15.904
		c-4.33,2.376-12.571,9.199-20.59,21.073c-2.497,3.7-4.925,6.405-7.124,8.463c0.953,0.448,1.85,1.065,2.629,1.872
		c0.969,1.002,1.635,2.172,2.041,3.402C179.721,157.416,185.711,152.703,191.108,147.364L191.108,147.364z M142.493,194.31
		c3.604-3.486,7.673-8.171,11.683-14.105c2.604-3.859,5.14-6.635,7.415-8.719c-0.768-0.422-1.484-0.952-2.129-1.619
		c-1.076-1.113-1.812-2.441-2.189-3.82c-8.25,5.631-15.979,11.889-22.592,19.326c-7.588,9.156-12.127,21.812-1.095,15.903
		C135.749,200.087,138.891,197.798,142.493,194.31z"/>
</g>
<g>
	<path id="path7032-6_2_" d="M51.537,164.726c0.204-4.534-1.992-9.039-6.102-11.573c-0.039-0.034-0.082-0.069-0.121-0.103
		c-0.033-0.016-0.067-0.03-0.102-0.042c-0.052-0.038-0.105-0.073-0.161-0.106c-6.061-3.454-13.827-1.43-17.421,4.552
		c-3.652,6.079-1.674,14.032,4.405,17.683c6.077,3.654,14.031,1.676,17.683-4.403C50.853,168.847,51.445,166.788,51.537,164.726
		L51.537,164.726z M46.38,164.453c-0.062,1.23-0.421,2.475-1.104,3.611c-2.202,3.667-6.889,4.835-10.554,2.633
		c-3.665-2.203-4.854-6.889-2.651-10.553c2.166-3.605,6.757-4.8,10.41-2.717c0.054,0.031,0.107,0.059,0.162,0.086
		c0.029,0.016,0.057,0.026,0.082,0.041c2.479,1.526,3.785,4.192,3.654,6.896V164.453z"/>
	<path id="path15803_2_" d="M21.934,138.023c-1.448-1.467-2.968-2.891-4.515-4.264c-9.156-7.593-21.813-12.131-15.904-1.099
		c2.376,4.33,9.2,12.571,21.073,20.59c3.7,2.497,6.405,4.925,8.463,7.124c0.448-0.953,1.065-1.85,1.872-2.629
		c1.002-0.969,2.172-1.635,3.402-2.041C31.986,149.41,27.273,143.419,21.934,138.023L21.934,138.023z M68.88,186.638
		c-3.486-3.604-8.171-7.673-14.105-11.683c-3.859-2.604-6.635-5.14-8.719-7.415c-0.422,0.768-0.952,1.484-1.619,2.129
		c-1.113,1.076-2.441,1.812-3.82,2.189c5.631,8.25,11.889,15.979,19.326,22.592c9.156,7.588,21.812,12.127,15.903,1.095
		C74.658,193.382,72.369,190.24,68.88,186.638z"/>
</g>
<g>
	<path id="path7032-6_3_" d="M177.893,39.304c0.203-4.534-1.992-9.039-6.102-11.573c-0.039-0.034-0.082-0.069-0.121-0.103
		c-0.033-0.016-0.068-0.03-0.102-0.042c-0.053-0.038-0.105-0.073-0.162-0.106c-6.061-3.454-13.826-1.43-17.42,4.552
		c-3.652,6.079-1.674,14.032,4.404,17.683c6.078,3.654,14.031,1.676,17.684-4.403C177.209,43.425,177.801,41.365,177.893,39.304
		L177.893,39.304z M172.737,39.03c-0.062,1.23-0.422,2.475-1.104,3.611c-2.203,3.667-6.889,4.835-10.555,2.633
		c-3.664-2.203-4.854-6.889-2.65-10.553c2.166-3.605,6.756-4.8,10.41-2.717c0.053,0.031,0.107,0.059,0.162,0.086
		c0.029,0.016,0.057,0.026,0.082,0.041c2.479,1.526,3.785,4.192,3.654,6.896V39.03z"/>
	<path id="path15803_3_" d="M148.29,12.601c-1.447-1.467-2.967-2.891-4.514-4.264c-9.156-7.593-21.814-12.131-15.904-1.099
		c2.375,4.33,9.199,12.571,21.072,20.59c3.701,2.497,6.406,4.925,8.463,7.124c0.449-0.953,1.066-1.85,1.873-2.629
		c1.002-0.969,2.172-1.635,3.402-2.041C158.342,23.987,153.629,17.997,148.29,12.601L148.29,12.601z M195.236,61.216
		c-3.486-3.604-8.17-7.673-14.105-11.683c-3.858-2.604-6.634-5.14-8.718-7.415c-0.422,0.768-0.953,1.484-1.619,2.129
		c-1.113,1.076-2.441,1.812-3.82,2.189c5.631,8.25,11.889,15.979,19.325,22.592c9.156,7.588,21.812,12.127,15.904,1.095
		C201.013,67.96,198.724,64.817,195.236,61.216z"/>
</g>
<path d="M46.752,38.681c0,4.417-3.583,8-8,8l0,0c-4.417,0-8-3.583-8-8l0,0c0-4.417,3.583-8,8-8l0,0
	C43.17,30.681,46.752,34.263,46.752,38.681L46.752,38.681z"/>
<path d="M173.037,38.762c0,4.417-3.582,8-8,8l0,0c-4.418,0-8-3.583-8-8l0,0c0-4.418,3.582-8,8-8l0,0
	C169.455,30.762,173.037,34.344,173.037,38.762L173.037,38.762z"/>
<path d="M46.671,164.03c0,4.417-3.583,8-8,8l0,0c-4.417,0-8-3.583-8-8l0,0c0-4.418,3.583-8,8-8l0,0
	C43.089,156.03,46.671,159.612,46.671,164.03L46.671,164.03z"/>
<path d="M173.028,164.03c0,4.417-3.583,8-8,8l0,0c-4.417,0-8-3.583-8-8l0,0c0-4.418,3.583-8,8-8l0,0
	C169.445,156.03,173.028,159.612,173.028,164.03L173.028,164.03z"/>
</svg>
